<?xml version="1.0" standalone="no"?>
<!DOCTYPE svg PUBLIC "-//W3C//DTD SVG 20010904//EN"
 "http://www.w3.org/TR/2001/REC-SVG-20010904/DTD/svg10.dtd">
<svg version="1.0" xmlns="http://www.w3.org/2000/svg"
 width="512.000000pt" height="512.000000pt" viewBox="0 0 512.000000 512.000000"
 preserveAspectRatio="xMidYMid meet">

<g transform="translate(0.000000,512.000000) scale(0.100000,-0.100000)"
fill="#000000" stroke="none">
<path d="M2518 5106 c-33 -25 -38 -65 -38 -314 l-1 -247 -49 -23 c-27 -13 -72
-44 -101 -70 l-52 -46 -262 37 c-287 41 -303 40 -325 -12 -13 -33 0 -75 27
-90 10 -5 102 -21 203 -36 102 -14 199 -28 217 -31 l32 -6 -27 -54 -26 -54
-56 5 c-79 8 -1861 145 -1887 145 -21 0 -23 4 -23 60 0 51 -4 65 -25 85 -13
14 -36 25 -50 25 -14 0 -37 -11 -50 -25 -23 -22 -25 -31 -25 -129 0 -95 2
-107 23 -130 22 -24 103 -43 1260 -288 l48 -10 -41 -35 c-98 -84 -115 -218
-40 -321 57 -79 186 -115 278 -76 123 51 178 200 118 318 l-24 48 36 -6 c21
-3 70 -13 110 -22 l72 -16 0 -92 c0 -89 -1 -93 -24 -104 -43 -19 -59 -55 -54
-122 5 -68 27 -100 69 -100 43 0 60 10 74 44 l13 31 11 -27 c19 -49 85 -64
121 -28 16 16 20 33 20 94 0 69 -2 76 -26 95 -15 12 -33 21 -40 21 -11 0 -14
18 -14 75 0 60 3 75 15 75 53 0 269 -56 329 -86 38 -19 87 -37 108 -40 l38 -7
0 -89 c0 -83 -1 -89 -23 -97 -36 -14 -48 -35 -54 -95 l-6 -56 -1164 0 c-1002
0 -1168 -2 -1192 -15 -47 -24 -56 -78 -18 -113 l23 -22 807 0 c444 0 807 -2
807 -5 0 -3 -175 -690 -390 -1526 -214 -836 -390 -1527 -390 -1535 0 -23 47
-64 73 -64 65 0 41 -82 468 1582 l395 1543 744 0 744 0 121 -475 c67 -261 125
-487 129 -503 22 -90 146 -86 146 5 0 18 -54 242 -120 500 -66 257 -120 470
-120 473 0 3 364 5 809 5 l810 0 20 26 c34 43 26 86 -20 109 -24 13 -190 15
-1192 15 l-1164 0 -6 56 c-6 57 -24 89 -58 99 -17 6 -19 17 -19 94 l0 88 38 7
c21 3 70 21 108 40 60 30 276 86 329 86 12 0 15 -15 15 -75 0 -57 -3 -75 -14
-75 -7 0 -25 -9 -40 -21 -24 -19 -26 -26 -26 -95 0 -61 4 -78 20 -94 36 -36
102 -21 121 28 l11 27 13 -31 c14 -34 31 -44 74 -44 42 0 64 32 69 100 5 67
-11 103 -54 122 -23 11 -24 15 -24 104 l0 92 72 16 c40 9 89 19 110 22 l36 6
-24 -48 c-78 -153 33 -333 206 -334 113 0 204 71 230 180 21 88 -8 171 -81
234 -24 20 -39 36 -35 36 5 0 295 61 645 136 575 122 638 138 659 160 20 23
22 35 22 130 0 98 -2 107 -25 129 -31 32 -69 32 -100 0 -21 -20 -25 -34 -25
-85 0 -52 -3 -60 -19 -60 -24 0 -1820 -137 -1891 -145 l-56 -5 -27 55 c-15 30
-23 55 -18 55 34 0 429 64 444 72 27 14 40 57 27 89 -22 52 -38 53 -325 12
l-262 -37 -52 46 c-29 26 -74 57 -101 70 l-49 23 -1 240 c0 246 -6 297 -37
321 -23 17 -63 17 -85 0z m118 -726 c115 -66 245 -259 246 -366 0 -63 -17 -98
-77 -153 -75 -69 -144 -96 -245 -96 -76 0 -93 4 -151 32 -115 57 -171 128
-171 217 2 139 210 396 322 396 14 0 48 -13 76 -30z m-948 -337 c205 -15 377
-30 382 -33 10 -6 33 -110 26 -117 -4 -4 -851 174 -871 183 -5 2 13 2 40 0 28
-3 218 -17 423 -33z m2207 32 c-28 -11 -867 -186 -871 -183 -6 7 7 93 17 109
6 10 111 22 406 45 395 31 467 36 448 29z m-2406 -331 c40 -33 43 -83 6 -119
-73 -74 -189 33 -123 113 31 37 77 40 117 6z m2253 -2 c10 -9 20 -31 24 -48 9
-44 -35 -94 -82 -94 -80 0 -114 93 -52 145 35 30 79 29 110 -3z"/>
<path d="M2436 4218 c-36 -33 -39 -75 -6 -108 18 -18 33 -20 130 -20 97 0 112
2 130 20 33 33 30 75 -6 108 -22 20 -36 22 -124 22 -88 0 -102 -2 -124 -22z"/>
<path d="M2535 3030 c-46 -18 -50 -35 -50 -190 0 -131 2 -150 19 -169 13 -14
31 -21 56 -21 25 0 43 7 56 21 17 19 19 38 19 170 0 135 -2 150 -20 168 -25
24 -54 32 -80 21z"/>
<path d="M2504 2369 c-18 -20 -19 -40 -19 -290 0 -263 0 -269 22 -290 13 -14
34 -22 53 -22 19 0 40 8 53 22 22 21 22 27 22 290 0 250 -1 270 -19 290 -13
14 -31 21 -56 21 -25 0 -43 -7 -56 -21z"/>
<path d="M3672 1847 c-12 -13 -22 -34 -22 -48 0 -13 99 -413 221 -889 238
-931 231 -910 295 -910 27 0 74 40 74 64 0 8 -101 410 -225 893 -182 711 -229
881 -246 896 -30 24 -71 21 -97 -6z"/>
<path d="M2511 1331 c-11 -11 -23 -35 -26 -53 -3 -18 -5 -230 -3 -471 l3 -439
28 -24 c35 -30 59 -30 94 0 l28 24 3 439 c2 241 0 453 -3 471 -8 43 -38 72
-75 72 -16 0 -39 -9 -49 -19z"/>
</g>
</svg>
