<?xml version="1.0" encoding="utf-8"?>
<!-- Generator: Adobe Illustrator 23.1.1, SVG Export Plug-In . SVG Version: 6.00 Build 0)  -->
<svg version="1.1" id="Layer_1" xmlns="http://www.w3.org/2000/svg" xmlns:xlink="http://www.w3.org/1999/xlink" x="0px" y="0px"
	 viewBox="0 0 23.6 19" style="enable-background:new 0 0 23.6 19;" xml:space="preserve">
<style type="text/css">
	.st0{fill:#FFFFFF;}
</style>
<path class="st0" d="M10,12.8V10h2l2-7H9.2L10,0H4l0.8,3H0l2,7h2v7.5V19v0h17l2.6-6.3H10z M8.1,1.5l-0.2,1H6.2l-0.3-1H8.1z M3.1,8.5
	L2,4.5h10l-1.1,4H3.1z M8.5,10.5v7h-3v-7H8.5z M13.2,17.5H10v-3.3h3.2V17.5z M17.2,17.5h-2.5v-3.3h2.5V17.5z M20,17.5h-1.2v-3.3h2.6
	L20,17.5z"/>
</svg>
