<?xml version="1.0" encoding="utf-8"?>
<!-- Generator: Adobe Illustrator 23.1.1, SVG Export Plug-In . SVG Version: 6.00 Build 0)  -->
<svg version="1.1" id="Layer_1" xmlns="http://www.w3.org/2000/svg" xmlns:xlink="http://www.w3.org/1999/xlink" x="0px" y="0px"
	 viewBox="0 0 15.6 19.1" style="enable-background:new 0 0 15.6 19.1;" xml:space="preserve">
<path d="M15.1,1c-0.3-0.1-0.6-0.1-0.8,0.1c0,0-0.8,0.7-3,0.7c-1.2,0-2.2-0.4-3.2-0.8C6.9,0.5,5.7,0,4.3,0
	c-2.9,0-3.9,1-4,1.1C0.1,1.2,0,1.4,0,1.6v10.5c0,0,0,0.1,0,0.1c0,0,0,0,0,0.1v6c0,0.4,0.3,0.7,0.8,0.7s0.8-0.3,0.8-0.7v-5.7
	C1.9,12.4,2.7,12,4.3,12c1.2,0,2.2,0.4,3.2,0.8c1.1,0.5,2.3,0.9,3.8,0.9c2.9,0,3.9-1,4-1.1c0.1-0.1,0.2-0.3,0.2-0.5V1.6
	C15.6,1.3,15.4,1.1,15.1,1z M14.1,11.8c-0.4,0.2-1.2,0.5-2.8,0.5c-1.2,0-2.2-0.4-3.2-0.8c-1.1-0.5-2.3-0.9-3.8-0.9
	c-1.2,0-2.1,0.2-2.8,0.4V2c0.4-0.2,1.2-0.5,2.8-0.5c1.2,0,2.2,0.4,3.2,0.8c1.1,0.5,2.3,0.9,3.8,0.9c1.2,0,2.1-0.2,2.8-0.4V11.8z"/>
</svg>
