<!-- Generated by IcoMoon.io -->
<svg version="1.1" xmlns="http://www.w3.org/2000/svg" width="1729" height="1024" viewBox="0 0 1729 1024">
<title></title>
<g id="icomoon-ignore">
</g>
<path fill="#000" d="M424.846 881.778q0-199.339 185.23-277.163c-8.449-13.446-16.816-29.209-24.067-45.576l-0.964-2.438c-10.549-4.971-22.824-8.99-35.653-11.449l-0.983-0.157v-26.852c9.012-11.105 16.788-23.769 22.791-37.39l0.419-1.066c0-0.050 0-0.11 0-0.169 0-15.713 2.076-30.941 5.968-45.425l-0.279 1.221 36.636-157.696v-2.048c0-1.82 2.048-5.689 2.048-7.509 13.426-77.141 5.689-132.892-19.342-165.433-9.799-13.24-23.802-22.878-40.012-26.974l-0.493-0.106c-13.724-20.951-31.95-37.867-53.386-49.672l-0.772-0.39c-29.446-15.963-64.469-25.347-101.683-25.347-20.833 0-40.978 2.941-60.045 8.429l1.529-0.377c-19.152 7.067-35.667 15.502-50.985 25.603l0.923-0.572c-19.001 12.498-35.491 26.443-50.146 42.124l-0.144 0.156c-26.046 25.88-45.495 58.37-55.619 94.744l-0.359 1.512c-3.686 13.553-5.804 29.114-5.804 45.17s2.118 31.617 6.089 46.419l-0.285-1.249v3.868c0.718 2.499 1.43 5.726 1.973 9.010l0.075 0.547c-21.163 28.9-13.653 69.404-5.916 96.256 5.624 26.023 17.167 48.757 33.176 67.574l-0.18-0.217c8.329 28.815 21.521 53.871 38.792 75.529l-0.336-0.436v26.852c-77.141 17.294-252.814 105.813-252.814 246.215 0 59.62 106.268 111.73 254.862 132.892 35.947 4.799 77.505 7.539 119.704 7.539 2.637 0 5.272-0.011 7.904-0.032l-0.404 0.003h54.158c-6.897-13.361-11.133-29.094-11.602-45.769l-0.003-0.152zM374.784 675.84l-59.847-63.488v-109.682c-23.909-23.043-40.563-53.465-46.293-87.591l-0.129-0.928c-0.294-4.149-3.588-7.443-7.71-7.735l-0.027-0.002s-9.557-1.82-21.163-46.194c-3.647-9.003-5.763-19.446-5.763-30.383 0-6.247 0.69-12.332 1.999-18.184l-0.104 0.553c1.266-1.161 2.961-1.873 4.823-1.873 0.305 0 0.606 0.019 0.901 0.056l-0.035-0.004h2.048c0.252 0.034 0.544 0.053 0.84 0.053 1.911 0 3.633-0.807 4.845-2.098l0.003-0.004c1.92-1.334 3.31-3.316 3.856-5.624l0.013-0.064s5.916-73.045 48.242-98.076c11.012-5.839 24.074-9.267 37.937-9.267 15.193 0 29.424 4.118 41.638 11.298l-0.386-0.21c32.255 15.367 70.097 24.342 110.036 24.342 14.335 0 28.4-1.156 42.107-3.381l-1.501 0.201c13.757 12.508 22.359 30.477 22.359 50.455 0 7.421-1.187 14.564-3.381 21.251l0.137-0.481c-0.361 0.942-0.57 2.031-0.57 3.17 0 2.489 0.999 4.745 2.619 6.389l-0.001-0.001c2.010 2.056 4.681 3.457 7.669 3.861l0.068 0.008c0.534-0.111 1.148-0.175 1.776-0.175 2.285 0 4.373 0.842 5.972 2.232l-0.011-0.009c1.82 1.82 7.737 13.426-3.868 48.014-13.653 44.146-23.211 46.194-23.211 46.194-4.149 0.294-7.443 3.588-7.735 7.71l-0.002 0.027c-6.327 34.931-22.882 65.233-46.407 88.505l-0.015 0.014v109.454l-59.62 63.488c-6.543 6.205-15.405 10.021-25.159 10.021-10.652 0-20.241-4.552-26.928-11.816l-0.023-0.026zM1472.74 544.996v-26.852c15.895-21.544 29.018-46.425 38.115-73.167l0.569-1.926c15.396-18.774 26.8-41.431 32.553-66.253l0.215-1.103c7.737-26.852 15.474-67.356-5.689-98.076 0-2.048 1.82-5.689 1.82-7.737 13.653-76.914 5.916-132.665-19.342-165.433-9.872-13.104-23.853-22.647-40.006-26.744l-0.499-0.107c-13.648-20.943-31.8-37.858-53.166-49.674l-0.765-0.388c-29.456-15.97-64.492-25.357-101.719-25.357-20.82 0-40.953 2.936-60.010 8.417l1.53-0.377c-19.242 7.070-35.833 15.507-51.231 25.611l0.941-0.58c-18.938 12.477-35.359 26.463-49.897 42.213l-0.165 0.181c-26.204 25.699-45.689 58.158-55.635 94.554l-0.343 1.474c-3.687 13.588-5.804 29.188-5.804 45.284s2.118 31.696 6.090 46.538l-0.286-1.255v1.82l40.505 169.301c3.614 13.811 5.689 29.666 5.689 46.007 0 0.066 0 0.131 0 0.197v-0.010c6.413 14.001 14.177 26.064 23.39 36.852l-0.179-0.215v26.852c-13.054 2.641-24.626 6.652-35.43 11.981l0.842-0.375c-7.141 19.151-15.649 35.662-25.825 50.968l0.566-0.905c121.742 53.703 185.458 148.139 185.458 275.115-0.684 18.37-5.66 35.435-13.947 50.414l0.294-0.579h58.027c2.228 0.019 4.863 0.029 7.5 0.029 42.198 0 83.757-2.739 124.507-8.050l-4.804 0.511c148.594-21.163 252.814-71.225 252.814-130.844-3.868-142.495-179.314-231.014-256.683-248.309zM1467.051 404.594c-4.149 0.294-7.443 3.588-7.735 7.71l-0.002 0.027c-6.284 34.903-22.758 65.2-46.187 88.513l-0.007 0.007v96.028c0 48.008-38.918 86.926-86.926 86.926s-86.926-38.918-86.926-86.926v0-96.028c-23.809-23.077-40.382-53.493-46.066-87.594l-0.127-0.925c-0.294-4.149-3.588-7.443-7.71-7.735l-0.027-0.002s-9.785-2.048-21.39-46.194c-3.583-9.080-5.66-19.597-5.66-30.599 0-6.166 0.652-12.18 1.892-17.977l-0.101 0.561c1.284-1.299 3.065-2.103 5.034-2.103 0.311 0 0.617 0.020 0.918 0.059l-0.035-0.004h1.82c0.271 0.034 0.584 0.053 0.902 0.053 1.923 0 3.68-0.71 5.023-1.882l-0.009 0.008c1.861-1.477 3.226-3.506 3.851-5.839l0.018-0.078s5.689-73.045 48.242-98.076c10.96-5.766 23.949-9.151 37.728-9.151 15.277 0 29.582 4.16 41.844 11.408l-0.383-0.209c32.303 15.324 70.187 24.272 110.16 24.272 14.209 0 28.155-1.131 41.751-3.307l-1.497 0.198c13.834 12.503 22.49 30.512 22.49 50.543 0 7.305-1.151 14.341-3.282 20.936l0.134-0.482c-0.414 1.019-0.654 2.201-0.654 3.439 0 2.451 0.94 4.682 2.48 6.352l-0.006-0.007c2.109 1.89 4.73 3.25 7.63 3.85l0.107 0.018c0.559-0.115 1.202-0.182 1.86-0.182 2.222 0 4.269 0.753 5.898 2.018l-0.022-0.016c2.048 2.048 7.737 13.426-3.868 48.014-11.605 42.325-21.163 44.373-21.163 44.373zM1050.169 621.909c40.4-32.772 66.009-82.414 66.009-138.037 0-13.826-1.582-27.282-4.575-40.197l0.233 1.196-40.505-174.99c-21.136-96.597-105.956-167.845-207.417-167.845s-186.281 71.247-207.158 166.441l-0.258 1.404-40.505 174.99c-3.017 12.207-4.747 26.221-4.747 40.639 0 54.834 25.032 103.821 64.292 136.158l0.303 0.242c-85.106 25.031-212.309 82.83-212.309 259.868 0 78.734 179.314 142.222 401.408 142.222s401.408-63.488 401.408-142.222c-2.048-171.349-129.252-234.837-216.178-259.868zM733.639 331.548v0c32.768 1.82 96.484-3.868 167.936-67.356 2.601-2.162 5.974-3.473 9.655-3.473 4.595 0 8.712 2.045 11.491 5.274l0.017 0.020 2.048 2.048c17.609 27.298 41.817 48.951 70.424 63.030l1.029 0.458c5.334 3.21 8.986 8.748 9.552 15.172l0.005 0.075-2.048 78.962c-1.58 49.419-24.303 93.232-59.373 122.904l-0.246 0.203c-2.056 2.010-3.457 4.681-3.861 7.669l-0.008 0.068v63.488c0.68 12.244 7.366 22.791 17.138 28.81l0.156 0.089-83.058 107.634c-2.769 3.285-6.887 5.358-11.489 5.358-3.697 0-7.081-1.338-9.696-3.556l0.022 0.018c-0.055 0.006-0.118 0.009-0.182 0.009-1.018 0-1.845-0.815-1.866-1.827v-0.002l-82.83-107.634c10.407-5.617 17.359-16.442 17.359-28.892 0-0.723-0.023-1.441-0.070-2.153l0.005 0.097v-63.488c0-0.018 0-0.040 0-0.062 0-3.067-1.516-5.779-3.84-7.428l-0.028-0.019c-27.684-22.624-47.613-53.809-55.769-89.479l-0.209-1.088-5.689-63.488v-48.014c0.408-7.245 6.181-13.018 13.388-13.424l0.037-0.002z"></path>
</svg>
