<?xml version="1.0" encoding="utf-8"?>
<!-- Generator: Adobe Illustrator 23.1.1, SVG Export Plug-In . SVG Version: 6.00 Build 0)  -->
<svg version="1.1" id="Layer_1" xmlns="http://www.w3.org/2000/svg" xmlns:xlink="http://www.w3.org/1999/xlink" x="0px" y="0px"
	 viewBox="0 0 21 18" style="enable-background:new 0 0 21 18;" xml:space="preserve">
<style type="text/css">
	.st0{fill:#FFFFFF;}
</style>
<g>
	<path class="st0" d="M2,8h4c1.1,0,2-0.9,2-2V2c0-1.1-0.9-2-2-2H2C0.9,0,0,0.9,0,2v4C0,7.1,0.9,8,2,8z M1.5,2c0-0.3,0.2-0.5,0.5-0.5
		h4c0.3,0,0.5,0.2,0.5,0.5v4c0,0.3-0.2,0.5-0.5,0.5H2C1.7,6.5,1.5,6.3,1.5,6V2z"/>
	<path class="st0" d="M19,10h-4c-1.1,0-2,0.9-2,2v4c0,1.1,0.9,2,2,2h4c1.1,0,2-0.9,2-2v-4C21,10.9,20.1,10,19,10z M19.5,16
		c0,0.3-0.2,0.5-0.5,0.5h-4c-0.3,0-0.5-0.2-0.5-0.5v-4c0-0.3,0.2-0.5,0.5-0.5h4c0.3,0,0.5,0.2,0.5,0.5V16z"/>
	<path class="st0" d="M9,10H2c-1.1,0-2,0.9-2,2v4c0,1.1,0.9,2,2,2h7c1.1,0,2-0.9,2-2v-4C11,10.9,10.1,10,9,10z M9.5,16
		c0,0.3-0.2,0.5-0.5,0.5H2c-0.3,0-0.5-0.2-0.5-0.5v-4c0-0.3,0.2-0.5,0.5-0.5h7c0.3,0,0.5,0.2,0.5,0.5V16z"/>
	<path class="st0" d="M19,0h-7c-1.1,0-2,0.9-2,2v4c0,1.1,0.9,2,2,2h7c1.1,0,2-0.9,2-2V2C21,0.9,20.1,0,19,0z M19.5,6
		c0,0.3-0.2,0.5-0.5,0.5h-7c-0.3,0-0.5-0.2-0.5-0.5V2c0-0.3,0.2-0.5,0.5-0.5h7c0.3,0,0.5,0.2,0.5,0.5V6z"/>
</g>
</svg>
