<svg width="60" height="40" viewBox="0 0 60 40" fill="none" xmlns="http://www.w3.org/2000/svg">
<path d="M59.7307 20.4134L50.8817 1.8442C50.3129 0.699523 49.1751 0 47.9742 0H12.0726C10.8084 0 9.67069 0.699523 9.16503 1.8442L0.316036 20.4134C0.126414 20.8585 0 21.3672 0 21.8124V36.7568C0 38.5374 1.45376 40 3.22356 40H56.76C58.5298 40 59.9836 38.5374 59.9836 36.7568V21.8124C60.0468 21.3672 59.9203 20.8585 59.7307 20.4134Z" fill="#CDCDCD"/>
<path d="M38.0506 20.2512C36.8496 20.2512 35.7119 21.0143 35.3327 22.159C34.5742 24.5119 32.3619 26.2289 29.7072 26.2289C27.0525 26.2289 24.9035 24.5119 24.0818 22.159C23.7026 21.0143 22.5648 20.2512 21.3639 20.2512C17.0026 20.2512 6 20.2512 6 20.2512L12.9999 4H46.2471L54 20.3148C55.0633 20.3148 42.4119 20.1876 38.0506 20.2512Z" fill="white"/>
</svg>
