<?xml version="1.0" encoding="utf-8"?>
<!-- Generator: Adobe Illustrator 23.1.1, SVG Export Plug-In . SVG Version: 6.00 Build 0)  -->
<svg version="1.1" id="Layer_1" xmlns="http://www.w3.org/2000/svg" xmlns:xlink="http://www.w3.org/1999/xlink" x="0px" y="0px"
	 viewBox="0 0 22 18.8" style="enable-background:new 0 0 22 18.8;" xml:space="preserve">
<style type="text/css">
	.st0{fill:#FFFFFF;}
</style>
<path class="st0" d="M19,3.8h-3.2v-1C15.8,1.2,14.5,0,13,0H9C7.5,0,6.2,1.2,6.2,2.8v1H3c-1.7,0-3,1.3-3,3v9c0,1.7,1.3,3,3,3h16
	c1.7,0,3-1.3,3-3v-5.2V9V6.8C22,5.1,20.7,3.8,19,3.8z M7.8,2.8c0-0.7,0.6-1.2,1.2-1.2h4c0.7,0,1.2,0.6,1.2,1.2v1H7.8V2.8z
	 M20.5,15.8c0,0.8-0.7,1.5-1.5,1.5H3c-0.8,0-1.5-0.7-1.5-1.5v-5.2h6.3c0,0,0,0.1,0,0.1c0,0.9,0.7,1.6,1.6,1.6h3.2
	c0.9,0,1.6-0.7,1.6-1.6c0,0,0-0.1,0-0.1h6.3V15.8z M20.5,9h-7.9H9.4H1.5V6.8c0-0.8,0.7-1.5,1.5-1.5h16c0.8,0,1.5,0.7,1.5,1.5V9z"/>
</svg>
