<svg xmlns="http://www.w3.org/2000/svg" width="14.211" height="17">
    <defs>
        <style>
            .cls-2{stroke:#aeb6c9;stroke-linecap:round;stroke-linejoin:round;stroke-width:1.5px}
        </style>
    </defs>
    <g id="icon-quarantinerequirements" transform="translate(-61.5 .5)">
        <g id="Group_42" data-name="Group 42" transform="translate(64)">
            <g id="Group_41" data-name="Group 41">
                <path id="Path_2184" data-name="Path 2184" d="M75.2 2.933a2.85 2.85 0 0 0 0-.636L72.58.078A.245.245 0 0 0 72.4 0h-9.636A.782.782 0 0 0 62 .8v14.4a.782.782 0 0 0 .764.8h11.672a.782.782 0 0 0 .764-.8V2.933zM72.655.91l1.676 1.756h-1.422a.261.261 0 0 1-.255-.267zm2.036 14.29a.261.261 0 0 1-.255.267H62.764a.261.261 0 0 1-.255-.267V.8a.261.261 0 0 1 .255-.267h9.382V2.4a.782.782 0 0 0 .764.8h1.782z" transform="translate(-64)" style="stroke:currentColor"></path>
            </g>
        </g>
        <g id="ts-handler" transform="translate(65.1 4.5)">
            <path id="Path_2126" data-name="Path 2126" class="cls-2" d="M11 17.456v-.819A1.7 1.7 0 0 0 9.253 15h-3.5A1.7 1.7 0 0 0 4 16.637v.819" transform="translate(-4 -10.148)"></path>
            <circle id="Ellipse_2" data-name="Ellipse 2" class="cls-2" cx="1.404" cy="1.404" r="1.404" transform="translate(2.06)"></circle>
        </g>
    </g>
</svg>