<?xml version="1.0" encoding="utf-8"?>
<!-- Generator: Adobe Illustrator 23.1.1, SVG Export Plug-In . SVG Version: 6.00 Build 0)  -->
<svg version="1.1" id="Layer_1" xmlns="http://www.w3.org/2000/svg" xmlns:xlink="http://www.w3.org/1999/xlink" x="0px" y="0px"
	 viewBox="0 0 19 19" style="enable-background:new 0 0 19 19;" xml:space="preserve">
<style type="text/css">
	.st0{fill:#FFFFFF;}
</style>
<path class="st0" d="M9.5,0C4.3,0,0,4.3,0,9.5S4.3,19,9.5,19S19,14.7,19,9.5S14.7,0,9.5,0z M13.4,8.8c0-0.9-0.1-1.8-0.3-2.7
	c1-0.2,2.1-0.4,3.2-0.8c0.6,1,1.1,2.2,1.2,3.5H13.4z M17.5,10.2c-0.1,1.2-0.5,2.4-1.1,3.4c-0.6-0.2-1.7-0.5-3.2-0.7
	c0.2-0.9,0.3-1.8,0.3-2.7H17.5z M15.3,4c-0.9,0.3-1.7,0.4-2.5,0.6c-0.2-0.9-0.6-1.8-1-2.7C13.2,2.3,14.4,3,15.3,4z M11.9,10.2
	c0,0.8-0.1,1.7-0.3,2.5c-1.4-0.1-2.9-0.2-4.6,0c-0.1-0.8-0.2-1.6-0.3-2.4H11.9z M6.8,8.8c0-0.9,0.1-1.7,0.3-2.6
	c0.8,0.1,1.7,0.1,2.6,0.1c0.6,0,1.3,0,1.9-0.1c0.2,0.8,0.3,1.7,0.3,2.5H6.8z M10,1.5c0.5,1,1,2.1,1.3,3.2c-1.4,0.1-2.6,0-3.8-0.1
	c0.3-1.1,0.7-2.1,1.2-3.1c0.3,0,0.5,0,0.8,0C9.7,1.5,9.8,1.5,10,1.5z M6.8,2C6.5,2.8,6.2,3.6,6,4.5C5,4.4,4.2,4.2,3.7,4
	C4.5,3.1,5.6,2.4,6.8,2z M5.3,8.8H1.5c0.1-1.2,0.5-2.4,1.1-3.4C3.3,5.5,4.3,5.8,5.6,6C5.4,6.9,5.3,7.8,5.3,8.8z M5.6,12.9
	c-1,0.2-2,0.4-2.9,0.7c-0.6-1-1-2.1-1.1-3.3h3.8C5.3,11.1,5.4,12,5.6,12.9z M3.6,14.9c0.8-0.2,1.6-0.4,2.3-0.5
	c0.2,0.9,0.6,1.8,0.9,2.7C5.6,16.6,4.5,15.8,3.6,14.9z M8.7,17.5c-0.5-1.1-1-2.2-1.3-3.3c1.4-0.1,2.7-0.1,3.9,0
	c-0.3,1.1-0.7,2.2-1.3,3.3c-0.2,0-0.3,0-0.5,0C9.2,17.5,9,17.5,8.7,17.5z M11.8,17.2c0.4-0.9,0.7-1.8,1-2.8c1.1,0.2,2,0.4,2.6,0.5
	C14.4,15.9,13.2,16.7,11.8,17.2z"/>
</svg>
