<?xml version="1.0" encoding="utf-8"?>
<!-- Generator: Adobe Illustrator 23.1.1, SVG Export Plug-In . SVG Version: 6.00 Build 0)  -->
<svg version="1.1" xmlns="http://www.w3.org/2000/svg" xmlns:xlink="http://www.w3.org/1999/xlink" x="0px" y="0px"
	 viewBox="0 0 21 19" style="enable-background:new 0 0 21 19;" xml:space="preserve">
<style type="text/css">
	.st0{fill:#FFFFFF;}
	.st1{enable-background:new    ;}
</style>
<g id="Layer_2">
</g>
<g id="Layer_1">
	<g transform="translate(1279 290)">
		<g>
			<path class="st0" d="M-1261-271h-15c-1.7,0-3-1.3-3-3v-13c0-1.7,1.3-3,3-3h15c1.7,0,3,1.3,3,3v13
				C-1258-272.3-1259.3-271-1261-271z M-1276-288.5c-0.8,0-1.5,0.7-1.5,1.5v13c0,0.8,0.7,1.5,1.5,1.5h15c0.8,0,1.5-0.7,1.5-1.5v-13
				c0-0.8-0.7-1.5-1.5-1.5H-1276z"/>
		</g>
	</g>
	<g class="st1">
		<path class="st0" d="M9,7.6c0-0.1-0.1-0.3-0.1-0.4C8.8,7.1,8.7,7,8.6,6.9C8.5,6.8,8.4,6.8,8.2,6.8C7.9,6.8,7.6,7,7.5,7.4
			s-0.2,1-0.2,1.9c0,0.4,0,0.8,0,1.2c0,0.3,0.1,0.6,0.1,0.9c0.1,0.2,0.2,0.4,0.3,0.6s0.3,0.2,0.5,0.2c0.1,0,0.2,0,0.3-0.1
			c0.1,0,0.2-0.1,0.3-0.2C8.9,11.7,9,11.6,9,11.4s0.1-0.3,0.1-0.5v-0.7h-1V9.2h2.3V13H9.4v-0.7h0c-0.2,0.3-0.4,0.5-0.6,0.6
			c-0.2,0.1-0.5,0.2-0.9,0.2c-0.4,0-0.8-0.1-1.1-0.2c-0.3-0.2-0.5-0.4-0.6-0.7C6,11.8,5.9,11.5,5.9,11c-0.1-0.5-0.1-1-0.1-1.6
			c0-0.6,0-1.1,0.1-1.6C6,7.3,6.1,6.9,6.3,6.6C6.5,6.3,6.7,6.1,7.1,6c0.3-0.2,0.7-0.2,1.1-0.2c0.8,0,1.4,0.2,1.7,0.6
			c0.3,0.4,0.5,0.9,0.5,1.7H9C9,7.8,9,7.7,9,7.6z"/>
		<path class="st0" d="M11.4,7.9c0.1-0.5,0.2-0.8,0.3-1.2c0.2-0.3,0.4-0.6,0.7-0.8s0.8-0.3,1.3-0.3s1,0.1,1.3,0.3s0.6,0.4,0.7,0.8
			c0.2,0.3,0.3,0.7,0.3,1.2c0.1,0.5,0.1,1,0.1,1.5c0,0.5,0,1-0.1,1.5c0,0.5-0.2,0.8-0.3,1.2c-0.2,0.3-0.4,0.6-0.7,0.8
			c-0.3,0.2-0.8,0.3-1.3,0.3s-1-0.1-1.3-0.3c-0.3-0.2-0.6-0.4-0.7-0.8c-0.2-0.3-0.3-0.7-0.3-1.2c0-0.5-0.1-1-0.1-1.5
			C11.3,8.9,11.3,8.4,11.4,7.9z M12.8,10.7c0,0.3,0.1,0.6,0.1,0.8c0.1,0.2,0.2,0.4,0.3,0.5c0.1,0.1,0.3,0.1,0.5,0.1
			c0.2,0,0.4,0,0.5-0.1c0.1-0.1,0.2-0.2,0.3-0.5c0.1-0.2,0.1-0.5,0.1-0.8s0-0.7,0-1.2c0-0.5,0-0.9,0-1.2s-0.1-0.6-0.1-0.8
			c-0.1-0.2-0.2-0.4-0.3-0.5s-0.3-0.1-0.5-0.1c-0.2,0-0.4,0-0.5,0.1C13.1,7,13,7.2,12.9,7.4c-0.1,0.2-0.1,0.5-0.1,0.8s0,0.7,0,1.2
			C12.7,9.9,12.7,10.3,12.8,10.7z"/>
	</g>
</g>
</svg>
