<svg xmlns="http://www.w3.org/2000/svg" width="14.211" height="17">
    <g data-name="Group 42">
        <g data-name="Group 41">
            <path data-name="Path 2184" d="M75.2 2.933a2.85 2.85 0 0 0 0-.636L72.58.078A.245.245 0 0 0 72.4 0h-9.636A.782.782 0 0 0 62 .8v14.4a.782.782 0 0 0 .764.8h11.672a.782.782 0 0 0 .764-.8V2.933zM72.655.91l1.676 1.756h-1.422a.261.261 0 0 1-.255-.267zm2.036 14.29a.261.261 0 0 1-.255.267H62.764a.261.261 0 0 1-.255-.267V.8a.261.261 0 0 1 .255-.267h9.382V2.4a.782.782 0 0 0 .764.8h1.782z" transform="translate(-61.5 .5)" style="stroke:currentColor;fill:currentColor"/>
        </g>
    </g>
    <path d="m8.49 1.957.367-.367L7.267 0 6.9.367l.214.214-.825.826-.6-.6L4.53 1.973l.324.324-3.18 3.18.272.272-.481.48v.8L0 8.49l.367.367 1.466-1.465h.8l.48-.48.272.272L6.563 4l.324.324 1.16-1.163-.6-.6.826-.826zM2.412 6.873h-.427v-.428l.328-.328.428.428zm-.005-1.4 2.019-2.014.974.974-.428.428-.487-.487-.366.364.487.487-.429.429-.487-.487-.368.368.487.487-.428.428zm3.358-1.409-.974-.974.428-.428.974.974zm1.119-.471-1.62-1.62.428-.428 1.621 1.62zm.2-1.392-.428-.428.825-.825.428.428z" style="fill:#aeb6c9" transform="translate(2.5 5.296)"/>
    <g data-name="Path 2189" style="fill:#aeb6c9">
        <path d="m1.335 7.6-.152-.445-.109-.315-.167-.01.034-4.016.005-.526-.429.018.005-.133.193.005.52.015-.006-.52L1.215.506 1.48.504l-.013 1.024-.006.507h.738l-.008.271-.416.04-.001.453-.008 3.84-.083-.012-.139.389-.208.583z" style="stroke:none" transform="rotate(45 -1.756 14.006)"/>
        <path d="m1.985 0-.019 1.535h.748l-.038 1.227-.403.039-.01 4.42-.249-.037-.49 1.371-.383.02L.71 7.317l-.307-.02L.44 2.81 0 2.83l.038-1.17.69.018L.71.01 1.985 0z" style="fill:currentColor;stroke:none" transform="rotate(45 -1.756 14.006)"/>
    </g>
</svg>
